<svg xmlns="http://www.w3.org/2000/svg" xmlns:xlink="http://www.w3.org/1999/xlink" width="500" zoomAndPan="magnify" viewBox="0 0 375 374.999991" height="500" preserveAspectRatio="xMidYMid meet" version="1.0"><defs><g/><clipPath id="id1"><path d="M 124 148 L 247 148 L 247 227 L 124 227 Z M 124 148 " clip-rule="nonzero"/></clipPath><clipPath id="id2"><path d="M 123.25 145.816406 L 246.25 145.460938 L 246.492188 228.710938 L 123.492188 229.066406 Z M 123.25 145.816406 " clip-rule="nonzero"/></clipPath><clipPath id="id3"><path d="M 123.25 145.816406 L 246.25 145.460938 L 246.492188 228.710938 L 123.492188 229.066406 Z M 123.25 145.816406 " clip-rule="nonzero"/></clipPath><clipPath id="id4"><path d="M 161 118 L 238 118 L 238 165 L 161 165 Z M 161 118 " clip-rule="nonzero"/></clipPath><clipPath id="id5"><path d="M 157.695312 88.917969 L 259.703125 116.792969 L 243.492188 176.117188 L 141.484375 148.242188 Z M 157.695312 88.917969 " clip-rule="nonzero"/></clipPath><clipPath id="id6"><path d="M 157.695312 88.917969 L 259.703125 116.792969 L 243.492188 176.117188 L 141.484375 148.242188 Z M 157.695312 88.917969 " clip-rule="nonzero"/></clipPath><clipPath id="id7"><path d="M 157.695312 88.917969 L 259.703125 116.792969 L 243.492188 176.117188 L 141.484375 148.242188 Z M 157.695312 88.917969 " clip-rule="nonzero"/></clipPath><clipPath id="id8"><path d="M 159 117 L 240 117 L 240 166 L 159 166 Z M 159 117 " clip-rule="nonzero"/></clipPath><clipPath id="id9"><path d="M 157.695312 88.917969 L 259.703125 116.792969 L 243.492188 176.117188 L 141.484375 148.242188 Z M 157.695312 88.917969 " clip-rule="nonzero"/></clipPath><clipPath id="id10"><path d="M 157.695312 88.917969 L 259.703125 116.792969 L 243.492188 176.117188 L 141.484375 148.242188 Z M 157.695312 88.917969 " clip-rule="nonzero"/></clipPath><clipPath id="id11"><path d="M 157.695312 88.917969 L 259.703125 116.792969 L 243.492188 176.117188 L 141.484375 148.242188 Z M 157.695312 88.917969 " clip-rule="nonzero"/></clipPath><clipPath id="id12"><path d="M 199 111 L 212 111 L 212 122 L 199 122 Z M 199 111 " clip-rule="nonzero"/></clipPath><clipPath id="id13"><path d="M 157.695312 88.917969 L 259.703125 116.792969 L 243.492188 176.117188 L 141.484375 148.242188 Z M 157.695312 88.917969 " clip-rule="nonzero"/></clipPath><clipPath id="id14"><path d="M 157.695312 88.917969 L 259.703125 116.792969 L 243.492188 176.117188 L 141.484375 148.242188 Z M 157.695312 88.917969 " clip-rule="nonzero"/></clipPath><clipPath id="id15"><path d="M 157.695312 88.917969 L 259.703125 116.792969 L 243.492188 176.117188 L 141.484375 148.242188 Z M 157.695312 88.917969 " clip-rule="nonzero"/></clipPath><clipPath id="id16"><path d="M 198 110 L 213 110 L 213 123 L 198 123 Z M 198 110 " clip-rule="nonzero"/></clipPath><clipPath id="id17"><path d="M 157.695312 88.917969 L 259.703125 116.792969 L 243.492188 176.117188 L 141.484375 148.242188 Z M 157.695312 88.917969 " clip-rule="nonzero"/></clipPath><clipPath id="id18"><path d="M 157.695312 88.917969 L 259.703125 116.792969 L 243.492188 176.117188 L 141.484375 148.242188 Z M 157.695312 88.917969 " clip-rule="nonzero"/></clipPath><clipPath id="id19"><path d="M 157.695312 88.917969 L 259.703125 116.792969 L 243.492188 176.117188 L 141.484375 148.242188 Z M 157.695312 88.917969 " clip-rule="nonzero"/></clipPath><clipPath id="id20"><path d="M 234 137 L 245 137 L 245 147 L 234 147 Z M 234 137 " clip-rule="nonzero"/></clipPath><clipPath id="id21"><path d="M 157.695312 88.917969 L 259.703125 116.792969 L 243.492188 176.117188 L 141.484375 148.242188 Z M 157.695312 88.917969 " clip-rule="nonzero"/></clipPath><clipPath id="id22"><path d="M 157.695312 88.917969 L 259.703125 116.792969 L 243.492188 176.117188 L 141.484375 148.242188 Z M 157.695312 88.917969 " clip-rule="nonzero"/></clipPath><clipPath id="id23"><path d="M 157.695312 88.917969 L 259.703125 116.792969 L 243.492188 176.117188 L 141.484375 148.242188 Z M 157.695312 88.917969 " clip-rule="nonzero"/></clipPath><clipPath id="id24"><path d="M 233 136 L 247 136 L 247 148 L 233 148 Z M 233 136 " clip-rule="nonzero"/></clipPath><clipPath id="id25"><path d="M 157.695312 88.917969 L 259.703125 116.792969 L 243.492188 176.117188 L 141.484375 148.242188 Z M 157.695312 88.917969 " clip-rule="nonzero"/></clipPath><clipPath id="id26"><path d="M 157.695312 88.917969 L 259.703125 116.792969 L 243.492188 176.117188 L 141.484375 148.242188 Z M 157.695312 88.917969 " clip-rule="nonzero"/></clipPath><clipPath id="id27"><path d="M 157.695312 88.917969 L 259.703125 116.792969 L 243.492188 176.117188 L 141.484375 148.242188 Z M 157.695312 88.917969 " clip-rule="nonzero"/></clipPath><clipPath id="id28"><path d="M 156 118 L 166 118 L 166 129 L 156 129 Z M 156 118 " clip-rule="nonzero"/></clipPath><clipPath id="id29"><path d="M 157.695312 88.917969 L 259.703125 116.792969 L 243.492188 176.117188 L 141.484375 148.242188 Z M 157.695312 88.917969 " clip-rule="nonzero"/></clipPath><clipPath id="id30"><path d="M 157.695312 88.917969 L 259.703125 116.792969 L 243.492188 176.117188 L 141.484375 148.242188 Z M 157.695312 88.917969 " clip-rule="nonzero"/></clipPath><clipPath id="id31"><path d="M 157.695312 88.917969 L 259.703125 116.792969 L 243.492188 176.117188 L 141.484375 148.242188 Z M 157.695312 88.917969 " clip-rule="nonzero"/></clipPath><clipPath id="id32"><path d="M 155 117 L 167 117 L 167 130 L 155 130 Z M 155 117 " clip-rule="nonzero"/></clipPath><clipPath id="id33"><path d="M 157.695312 88.917969 L 259.703125 116.792969 L 243.492188 176.117188 L 141.484375 148.242188 Z M 157.695312 88.917969 " clip-rule="nonzero"/></clipPath><clipPath id="id34"><path d="M 157.695312 88.917969 L 259.703125 116.792969 L 243.492188 176.117188 L 141.484375 148.242188 Z M 157.695312 88.917969 " clip-rule="nonzero"/></clipPath><clipPath id="id35"><path d="M 157.695312 88.917969 L 259.703125 116.792969 L 243.492188 176.117188 L 141.484375 148.242188 Z M 157.695312 88.917969 " clip-rule="nonzero"/></clipPath><clipPath id="id36"><path d="M 242 149 L 249 149 L 249 155 L 242 155 Z M 242 149 " clip-rule="nonzero"/></clipPath><clipPath id="id37"><path d="M 157.695312 88.917969 L 259.703125 116.792969 L 243.492188 176.117188 L 141.484375 148.242188 Z M 157.695312 88.917969 " clip-rule="nonzero"/></clipPath><clipPath id="id38"><path d="M 157.695312 88.917969 L 259.703125 116.792969 L 243.492188 176.117188 L 141.484375 148.242188 Z M 157.695312 88.917969 " clip-rule="nonzero"/></clipPath><clipPath id="id39"><path d="M 157.695312 88.917969 L 259.703125 116.792969 L 243.492188 176.117188 L 141.484375 148.242188 Z M 157.695312 88.917969 " clip-rule="nonzero"/></clipPath><clipPath id="id40"><path d="M 249 133 L 254 133 L 254 138 L 249 138 Z M 249 133 " clip-rule="nonzero"/></clipPath><clipPath id="id41"><path d="M 157.695312 88.917969 L 259.703125 116.792969 L 243.492188 176.117188 L 141.484375 148.242188 Z M 157.695312 88.917969 " clip-rule="nonzero"/></clipPath><clipPath id="id42"><path d="M 157.695312 88.917969 L 259.703125 116.792969 L 243.492188 176.117188 L 141.484375 148.242188 Z M 157.695312 88.917969 " clip-rule="nonzero"/></clipPath><clipPath id="id43"><path d="M 157.695312 88.917969 L 259.703125 116.792969 L 243.492188 176.117188 L 141.484375 148.242188 Z M 157.695312 88.917969 " clip-rule="nonzero"/></clipPath><clipPath id="id44"><path d="M 232 129 L 237 129 L 237 135 L 232 135 Z M 232 129 " clip-rule="nonzero"/></clipPath><clipPath id="id45"><path d="M 157.695312 88.917969 L 259.703125 116.792969 L 243.492188 176.117188 L 141.484375 148.242188 Z M 157.695312 88.917969 " clip-rule="nonzero"/></clipPath><clipPath id="id46"><path d="M 157.695312 88.917969 L 259.703125 116.792969 L 243.492188 176.117188 L 141.484375 148.242188 Z M 157.695312 88.917969 " clip-rule="nonzero"/></clipPath><clipPath id="id47"><path d="M 157.695312 88.917969 L 259.703125 116.792969 L 243.492188 176.117188 L 141.484375 148.242188 Z M 157.695312 88.917969 " clip-rule="nonzero"/></clipPath><clipPath id="id48"><path d="M 213 118 L 220 118 L 220 122 L 213 122 Z M 213 118 " clip-rule="nonzero"/></clipPath><clipPath id="id49"><path d="M 157.695312 88.917969 L 259.703125 116.792969 L 243.492188 176.117188 L 141.484375 148.242188 Z M 157.695312 88.917969 " clip-rule="nonzero"/></clipPath><clipPath id="id50"><path d="M 157.695312 88.917969 L 259.703125 116.792969 L 243.492188 176.117188 L 141.484375 148.242188 Z M 157.695312 88.917969 " clip-rule="nonzero"/></clipPath><clipPath id="id51"><path d="M 157.695312 88.917969 L 259.703125 116.792969 L 243.492188 176.117188 L 141.484375 148.242188 Z M 157.695312 88.917969 " clip-rule="nonzero"/></clipPath><clipPath id="id52"><path d="M 206 103 L 210 103 L 210 108 L 206 108 Z M 206 103 " clip-rule="nonzero"/></clipPath><clipPath id="id53"><path d="M 157.695312 88.917969 L 259.703125 116.792969 L 243.492188 176.117188 L 141.484375 148.242188 Z M 157.695312 88.917969 " clip-rule="nonzero"/></clipPath><clipPath id="id54"><path d="M 157.695312 88.917969 L 259.703125 116.792969 L 243.492188 176.117188 L 141.484375 148.242188 Z M 157.695312 88.917969 " clip-rule="nonzero"/></clipPath><clipPath id="id55"><path d="M 157.695312 88.917969 L 259.703125 116.792969 L 243.492188 176.117188 L 141.484375 148.242188 Z M 157.695312 88.917969 " clip-rule="nonzero"/></clipPath><clipPath id="id56"><path d="M 189 116 L 195 116 L 195 120 L 189 120 Z M 189 116 " clip-rule="nonzero"/></clipPath><clipPath id="id57"><path d="M 157.695312 88.917969 L 259.703125 116.792969 L 243.492188 176.117188 L 141.484375 148.242188 Z M 157.695312 88.917969 " clip-rule="nonzero"/></clipPath><clipPath id="id58"><path d="M 157.695312 88.917969 L 259.703125 116.792969 L 243.492188 176.117188 L 141.484375 148.242188 Z M 157.695312 88.917969 " clip-rule="nonzero"/></clipPath><clipPath id="id59"><path d="M 157.695312 88.917969 L 259.703125 116.792969 L 243.492188 176.117188 L 141.484375 148.242188 Z M 157.695312 88.917969 " clip-rule="nonzero"/></clipPath><clipPath id="id60"><path d="M 168 120 L 174 120 L 174 124 L 168 124 Z M 168 120 " clip-rule="nonzero"/></clipPath><clipPath id="id61"><path d="M 157.695312 88.917969 L 259.703125 116.792969 L 243.492188 176.117188 L 141.484375 148.242188 Z M 157.695312 88.917969 " clip-rule="nonzero"/></clipPath><clipPath id="id62"><path d="M 157.695312 88.917969 L 259.703125 116.792969 L 243.492188 176.117188 L 141.484375 148.242188 Z M 157.695312 88.917969 " clip-rule="nonzero"/></clipPath><clipPath id="id63"><path d="M 157.695312 88.917969 L 259.703125 116.792969 L 243.492188 176.117188 L 141.484375 148.242188 Z M 157.695312 88.917969 " clip-rule="nonzero"/></clipPath><clipPath id="id64"><path d="M 152 110 L 158 110 L 158 116 L 152 116 Z M 152 110 " clip-rule="nonzero"/></clipPath><clipPath id="id65"><path d="M 157.695312 88.917969 L 259.703125 116.792969 L 243.492188 176.117188 L 141.484375 148.242188 Z M 157.695312 88.917969 " clip-rule="nonzero"/></clipPath><clipPath id="id66"><path d="M 157.695312 88.917969 L 259.703125 116.792969 L 243.492188 176.117188 L 141.484375 148.242188 Z M 157.695312 88.917969 " clip-rule="nonzero"/></clipPath><clipPath id="id67"><path d="M 157.695312 88.917969 L 259.703125 116.792969 L 243.492188 176.117188 L 141.484375 148.242188 Z M 157.695312 88.917969 " clip-rule="nonzero"/></clipPath><clipPath id="id68"><path d="M 147 128 L 155 128 L 155 133 L 147 133 Z M 147 128 " clip-rule="nonzero"/></clipPath><clipPath id="id69"><path d="M 157.695312 88.917969 L 259.703125 116.792969 L 243.492188 176.117188 L 141.484375 148.242188 Z M 157.695312 88.917969 " clip-rule="nonzero"/></clipPath><clipPath id="id70"><path d="M 157.695312 88.917969 L 259.703125 116.792969 L 243.492188 176.117188 L 141.484375 148.242188 Z M 157.695312 88.917969 " clip-rule="nonzero"/></clipPath><clipPath id="id71"><path d="M 157.695312 88.917969 L 259.703125 116.792969 L 243.492188 176.117188 L 141.484375 148.242188 Z M 157.695312 88.917969 " clip-rule="nonzero"/></clipPath></defs><g clip-path="url(#id1)"><g clip-path="url(#id2)"><g clip-path="url(#id3)"><path fill="rgb(0%, 0%, 0%)" d="M 218.773438 180.894531 C 218.566406 180.273438 218.238281 179.726562 217.785156 179.257812 C 217.300781 178.757812 216.742188 178.355469 216.117188 178.050781 C 215.433594 177.71875 214.707031 177.492188 213.953125 177.378906 C 212.761719 177.167969 211.570312 177.191406 210.386719 177.445312 C 209.347656 177.671875 208.375 178.0625 207.46875 178.617188 C 206.335938 179.34375 205.363281 180.300781 204.609375 181.410156 C 204.082031 182.183594 203.65625 183.019531 203.339844 183.898438 C 202.296875 186.351562 204.835938 188.023438 206.324219 185.902344 C 206.960938 184.863281 207.730469 183.914062 208.609375 183.070312 C 209.121094 182.617188 209.714844 182.332031 210.394531 182.214844 C 210.304688 183.332031 210.632812 184.308594 211.371094 185.148438 C 212.410156 186.328125 214.007812 186.855469 215.542969 186.519531 C 216.085938 186.40625 216.585938 186.199219 217.050781 185.898438 C 217.53125 185.585938 217.929688 185.1875 218.242188 184.703125 C 218.589844 184.15625 218.816406 183.539062 218.902344 182.898438 C 219.027344 182.21875 218.984375 181.550781 218.773438 180.890625 Z M 215.996094 183.773438 C 213.613281 183.78125 217.503906 179.871094 217.507812 182.253906 C 217.511719 183.09375 216.832031 183.773438 215.996094 183.773438 Z M 177.195312 169.015625 C 178.242188 168.769531 179.300781 168.726562 180.363281 168.878906 C 181.886719 168.996094 183.378906 169.410156 184.746094 170.09375 C 185.792969 170.664062 186.734375 171.363281 187.542969 172.226562 C 188.40625 173.09375 189.179688 174.042969 189.835938 175.066406 C 190.367188 175.828125 190.773438 176.65625 191.050781 177.546875 C 192.121094 180.507812 189.246094 181.78125 187.871094 180.210938 C 187.117188 178.996094 186.300781 177.820312 185.425781 176.691406 C 184.214844 175.371094 182.777344 174.386719 181.109375 173.734375 C 179.777344 173.269531 178.402344 173.074219 176.992188 173.148438 C 174.496094 172.796875 174.664062 169.140625 177.179688 169.015625 Z M 184.949219 214.84375 C 171.132812 210.472656 166.785156 201.21875 168.140625 191.839844 C 168.34375 190.476562 168.753906 189.175781 169.375 187.941406 C 169.375 187.941406 170.6875 197.601562 184.175781 205.449219 C 192.996094 210.578125 202.675781 211.492188 209.375 208.660156 C 208.453125 210.121094 199.675781 219.484375 184.945312 214.828125 Z M 233.183594 168.746094 C 231.074219 168.511719 228.492188 169.488281 226.320312 170.613281 L 226.332031 170.566406 C 218.328125 159.457031 204.789062 151.421875 192.210938 149.082031 C 174.050781 145.707031 157.871094 153.117188 149.316406 167.4375 C 146.894531 165.707031 142.910156 163.300781 139.761719 163.464844 C 130.226562 163.96875 125.007812 171.34375 124.25 180.796875 C 123.488281 190.324219 136.570312 201.640625 145.585938 196.125 C 152.253906 211.109375 172.078125 222.773438 185.761719 225.320312 C 205.332031 228.953125 227.636719 218.699219 232.5 198.734375 C 239.332031 198.773438 246.203125 191.339844 246.058594 184.226562 C 245.890625 175.984375 241.25 169.640625 233.179688 168.746094 Z M 147.796875 180.804688 C 147.242188 182.90625 147.078125 185.035156 147.304688 187.199219 C 147.304688 187.199219 144.203125 190.039062 140.882812 189.609375 C 137.691406 189.199219 133.371094 185.414062 133.6875 179.699219 C 134.023438 173.632812 139.289062 170.609375 142.753906 171.09375 C 145.585938 171.496094 148.109375 173.066406 149.722656 175.429688 C 148.847656 177.125 148.199219 178.925781 147.792969 180.769531 Z M 218.714844 194.839844 L 218.742188 194.925781 C 219.660156 198.125 219.703125 201.335938 218.871094 204.558594 C 215.710938 217.113281 199.886719 224.789062 183.710938 219.945312 C 165.550781 214.5 159.660156 202.199219 161.433594 189.957031 C 161.855469 186.710938 163.214844 183.65625 165.347656 181.175781 C 165.335938 181.152344 165.332031 181.125 165.328125 181.097656 C 162.730469 170.066406 167.863281 159.511719 177.003906 157.269531 C 186.148438 155.027344 195.742188 162.144531 198.441406 173.15625 L 198.765625 174.585938 C 200.0625 172.582031 201.753906 171.015625 203.851562 169.878906 C 220.238281 160.871094 234.429688 184.695312 218.71875 194.835938 Z M 233.378906 192.988281 C 233.703125 186.710938 232.226562 180.46875 229.132812 174.996094 C 233.859375 173.789062 238.90625 177.941406 238.867188 184.359375 C 238.851562 189.292969 236.1875 192.027344 233.359375 192.984375 Z M 233.378906 192.988281 " fill-opacity="1" fill-rule="nonzero"/></g></g></g><g clip-path="url(#id4)"><g clip-path="url(#id5)"><g clip-path="url(#id6)"><g clip-path="url(#id7)"><path fill="rgb(98.81897%, 79.60968%, 11.759949%)" d="M 237.722656 142.945312 C 231.5 148.605469 223.464844 157.398438 218.546875 164.226562 C 202.585938 156.96875 185.027344 153.25 167.488281 153.414062 C 166.929688 143.949219 164.929688 134.570312 161.582031 125.707031 C 167.140625 130.523438 172.808594 135.214844 178.578125 139.773438 C 187.03125 133.425781 196.789062 126.703125 204.722656 118.761719 C 207.511719 129.632812 211.039062 137.820312 214.511719 147.789062 C 221.667969 145.167969 230.183594 144.042969 237.722656 142.945312 " fill-opacity="1" fill-rule="nonzero"/></g></g></g></g><g clip-path="url(#id8)"><g clip-path="url(#id9)"><g clip-path="url(#id10)"><g clip-path="url(#id11)"><path fill="rgb(6.269836%, 5.879211%, 5.099487%)" d="M 236.554688 141.75 C 232.246094 145.808594 224.6875 157.851562 219.53125 160.171875 C 213.550781 162.863281 202.398438 156.328125 196.382812 154.941406 C 193.132812 154.195312 189.847656 153.578125 186.550781 153.089844 C 183.316406 152.605469 175.074219 153.546875 172.269531 151.796875 C 165.410156 147.511719 165.71875 132.507812 163.195312 125.273438 C 162.257812 125.808594 161.324219 126.34375 160.390625 126.878906 C 165.972656 131.671875 171.632812 136.355469 177.386719 140.941406 C 177.914062 141.363281 178.773438 141.691406 179.40625 141.222656 C 181.25 139.851562 200.679688 122.875 202.386719 123.285156 C 207.417969 124.5 211.09375 143.152344 212.902344 148.222656 C 213.195312 149.046875 214.027344 149.695312 214.941406 149.402344 C 222.566406 146.988281 230.261719 145.710938 238.152344 144.558594 C 240.273438 144.25 239.394531 141.023438 237.292969 141.328125 C 230.09375 142.378906 218.394531 147.476562 213.890625 141.160156 C 209.847656 135.488281 208.140625 124.90625 206.332031 118.328125 C 205.996094 117.105469 204.464844 116.703125 203.558594 117.566406 C 198.484375 122.394531 188.210938 134.128906 181.449219 135.578125 C 174.042969 137.160156 167.988281 129.015625 162.773438 124.535156 C 161.628906 123.554688 159.371094 124.414062 159.972656 126.140625 C 163.121094 135.167969 165.015625 143.859375 165.824219 153.421875 C 165.898438 154.328125 166.527344 155.078125 167.492188 155.085938 C 185.027344 155.273438 201.605469 158.734375 217.695312 165.664062 C 218.597656 166.050781 219.378906 165.878906 219.980469 165.078125 C 225.675781 157.523438 232.011719 150.617188 238.886719 144.136719 C 240.457031 142.660156 238.121094 140.277344 236.554688 141.75 " fill-opacity="1" fill-rule="nonzero"/></g></g></g></g><g clip-path="url(#id12)"><g clip-path="url(#id13)"><g clip-path="url(#id14)"><g clip-path="url(#id15)"><path fill="rgb(98.039246%, 96.859741%, 51.368713%)" d="M 203.003906 120.808594 C 204.410156 121.058594 205.839844 121.304688 207.257812 121.121094 C 208.671875 120.933594 210.09375 120.242188 210.8125 119.003906 C 211.378906 118.027344 211.445312 116.839844 211.347656 115.710938 C 211.273438 114.902344 211.113281 114.070312 210.667969 113.390625 C 210.269531 112.785156 209.667969 112.332031 209.023438 112.003906 C 207.183594 111.058594 204.890625 111.050781 203.046875 111.992188 C 201.203125 112.933594 199.859375 114.800781 199.550781 116.851562 C 199.425781 117.695312 199.488281 118.621094 200.003906 119.292969 C 200.328125 119.71875 200.800781 120 201.285156 120.226562 C 202.648438 120.867188 204.1875 121.121094 205.6875 120.957031 " fill-opacity="1" fill-rule="nonzero"/></g></g></g></g><g clip-path="url(#id16)"><g clip-path="url(#id17)"><g clip-path="url(#id18)"><g clip-path="url(#id19)"><path fill="rgb(6.269836%, 5.879211%, 5.099487%)" d="M 202.675781 122.019531 C 206.105469 122.613281 210.921875 122.835938 212.300781 118.726562 C 213.652344 114.695312 211.40625 110.789062 207.230469 110.136719 C 203.214844 109.511719 199.277344 112.183594 198.414062 116.183594 C 197.425781 120.761719 201.855469 122.453125 205.691406 122.210938 C 207.285156 122.113281 207.296875 119.605469 205.683594 119.703125 C 202.996094 119.871094 199.601562 118.933594 201.257812 115.527344 C 202.296875 113.390625 204.585938 112.253906 206.898438 112.636719 C 209.472656 113.0625 211.183594 115.90625 209.738281 118.367188 C 208.46875 120.523438 205.328125 119.945312 203.335938 119.597656 C 201.765625 119.324219 201.085938 121.742188 202.675781 122.019531 " fill-opacity="1" fill-rule="nonzero"/></g></g></g></g><g clip-path="url(#id20)"><g clip-path="url(#id21)"><g clip-path="url(#id22)"><g clip-path="url(#id23)"><path fill="rgb(98.039246%, 96.859741%, 51.368713%)" d="M 235.910156 142.160156 C 236.582031 143.835938 237.394531 145.664062 239.039062 146.402344 C 240.53125 147.070312 242.402344 146.5625 243.515625 145.359375 C 244.625 144.160156 245.003906 142.378906 244.6875 140.773438 C 244.5625 140.160156 244.347656 139.5625 243.988281 139.050781 C 243.328125 138.101562 242.226562 137.523438 241.085938 137.347656 C 239.945312 137.171875 238.773438 137.375 237.683594 137.757812 C 236.851562 138.050781 236.027344 138.46875 235.460938 139.144531 C 234.300781 140.519531 234.59375 142.863281 236.054688 143.90625 " fill-opacity="1" fill-rule="nonzero"/></g></g></g></g><g clip-path="url(#id24)"><g clip-path="url(#id25)"><g clip-path="url(#id26)"><g clip-path="url(#id27)"><path fill="rgb(6.269836%, 5.879211%, 5.099487%)" d="M 234.703125 142.484375 C 235.96875 145.59375 238.121094 148.871094 242.003906 147.71875 C 245.5625 146.667969 247.015625 142.148438 245.386719 138.964844 C 243.675781 135.621094 239.347656 135.488281 236.328125 136.976562 C 233.28125 138.476562 232.472656 142.496094 235.160156 144.785156 C 236.378906 145.824219 238.175781 144.074219 236.949219 143.027344 C 235.195312 141.535156 236.144531 139.691406 238.007812 138.96875 C 239.886719 138.242188 242.484375 138.289062 243.324219 140.492188 C 244.082031 142.492188 242.980469 145.34375 240.613281 145.441406 C 238.632812 145.523438 237.742188 143.363281 237.117188 141.835938 C 236.519531 140.363281 234.09375 140.992188 234.703125 142.484375 " fill-opacity="1" fill-rule="nonzero"/></g></g></g></g><g clip-path="url(#id28)"><g clip-path="url(#id29)"><g clip-path="url(#id30)"><g clip-path="url(#id31)"><path fill="rgb(98.039246%, 96.859741%, 51.368713%)" d="M 163.257812 126.21875 C 165.421875 125.183594 166.34375 122.152344 165.125 120.085938 C 164.6875 119.347656 163.976562 118.71875 163.128906 118.621094 C 162.671875 118.566406 162.210938 118.667969 161.773438 118.800781 C 160.574219 119.167969 159.453125 119.773438 158.492188 120.578125 C 157.585938 121.335938 156.785156 122.378906 156.804688 123.558594 C 156.824219 124.476562 157.332031 125.3125 157.902344 126.027344 C 158.675781 127.003906 159.664062 127.910156 160.890625 128.121094 C 162.113281 128.332031 163.5625 127.578125 163.71875 126.34375 " fill-opacity="1" fill-rule="nonzero"/></g></g></g></g><g clip-path="url(#id32)"><g clip-path="url(#id33)"><g clip-path="url(#id34)"><g clip-path="url(#id35)"><path fill="rgb(6.269836%, 5.879211%, 5.099487%)" d="M 163.875 127.308594 C 166.40625 125.890625 167.703125 122.597656 166.425781 119.886719 C 164.738281 116.316406 160.878906 117.261719 158.238281 119.203125 C 155.191406 121.441406 154.871094 124.609375 157.410156 127.386719 C 159.542969 129.714844 163.859375 130.410156 164.925781 126.671875 C 165.367188 125.121094 162.957031 124.457031 162.515625 126.011719 C 161.800781 128.511719 158.824219 125.453125 158.359375 124.492188 C 157.453125 122.613281 159.464844 121.195312 160.941406 120.472656 C 162.695312 119.621094 164.378906 119.957031 164.410156 122.128906 C 164.429688 123.421875 163.746094 124.507812 162.636719 125.132812 C 161.230469 125.921875 162.46875 128.097656 163.875 127.308594 " fill-opacity="1" fill-rule="nonzero"/></g></g></g></g><g clip-path="url(#id36)"><g clip-path="url(#id37)"><g clip-path="url(#id38)"><g clip-path="url(#id39)"><path fill="rgb(6.269836%, 5.879211%, 5.099487%)" d="M 243.269531 151.203125 C 244.375 152.21875 245.417969 153.285156 246.414062 154.410156 C 247.484375 155.617188 249.265625 153.855469 248.203125 152.652344 C 247.207031 151.527344 246.160156 150.464844 245.058594 149.449219 C 243.875 148.359375 242.085938 150.113281 243.269531 151.203125 " fill-opacity="1" fill-rule="nonzero"/></g></g></g></g><g clip-path="url(#id40)"><g clip-path="url(#id41)"><g clip-path="url(#id42)"><g clip-path="url(#id43)"><path fill="rgb(6.269836%, 5.879211%, 5.099487%)" d="M 251.238281 137.242188 C 252.097656 136.886719 252.8125 136.40625 253.507812 135.796875 C 254.726562 134.730469 252.96875 132.949219 251.761719 134.007812 C 251.226562 134.472656 250.652344 134.796875 250.003906 135.066406 C 248.515625 135.683594 249.769531 137.855469 251.238281 137.242188 " fill-opacity="1" fill-rule="nonzero"/></g></g></g></g><g clip-path="url(#id44)"><g clip-path="url(#id45)"><g clip-path="url(#id46)"><g clip-path="url(#id47)"><path fill="rgb(6.269836%, 5.879211%, 5.099487%)" d="M 236.117188 132.292969 C 235.757812 131.476562 235.394531 130.65625 235.035156 129.839844 C 234.386719 128.363281 232.21875 129.621094 232.863281 131.082031 C 233.222656 131.902344 233.582031 132.71875 233.945312 133.539062 C 234.59375 135.011719 236.761719 133.757812 236.117188 132.292969 " fill-opacity="1" fill-rule="nonzero"/></g></g></g></g><g clip-path="url(#id48)"><g clip-path="url(#id49)"><g clip-path="url(#id50)"><g clip-path="url(#id51)"><path fill="rgb(6.269836%, 5.879211%, 5.099487%)" d="M 214.941406 121.289062 C 215.898438 121.0625 216.820312 121 217.800781 121.054688 C 219.40625 121.152344 219.402344 118.640625 217.796875 118.546875 C 216.609375 118.480469 215.453125 118.59375 214.292969 118.867188 C 212.726562 119.234375 213.371094 121.660156 214.941406 121.289062 " fill-opacity="1" fill-rule="nonzero"/></g></g></g></g><g clip-path="url(#id52)"><g clip-path="url(#id53)"><g clip-path="url(#id54)"><g clip-path="url(#id55)"><path fill="rgb(6.269836%, 5.879211%, 5.099487%)" d="M 209.496094 105.765625 C 209.339844 105.285156 209.183594 104.808594 209.03125 104.328125 C 208.53125 102.804688 206.113281 103.441406 206.613281 104.980469 C 206.769531 105.460938 206.925781 105.9375 207.078125 106.417969 C 207.578125 107.945312 209.996094 107.304688 209.496094 105.765625 " fill-opacity="1" fill-rule="nonzero"/></g></g></g></g><g clip-path="url(#id56)"><g clip-path="url(#id57)"><g clip-path="url(#id58)"><g clip-path="url(#id59)"><path fill="rgb(6.269836%, 5.879211%, 5.099487%)" d="M 193.710938 116.75 C 192.640625 116.441406 191.582031 116.304688 190.472656 116.332031 C 188.867188 116.371094 188.859375 118.878906 190.476562 118.839844 C 191.375 118.816406 192.1875 118.921875 193.050781 119.171875 C 194.597656 119.617188 195.257812 117.199219 193.710938 116.75 " fill-opacity="1" fill-rule="nonzero"/></g></g></g></g><g clip-path="url(#id60)"><g clip-path="url(#id61)"><g clip-path="url(#id62)"><g clip-path="url(#id63)"><path fill="rgb(6.269836%, 5.879211%, 5.099487%)" d="M 170.4375 123.59375 C 171.117188 123.191406 171.796875 122.789062 172.476562 122.386719 C 173.863281 121.566406 172.628906 119.386719 171.238281 120.210938 C 170.558594 120.613281 169.878906 121.015625 169.199219 121.417969 C 167.8125 122.238281 169.046875 124.414062 170.4375 123.59375 " fill-opacity="1" fill-rule="nonzero"/></g></g></g></g><g clip-path="url(#id64)"><g clip-path="url(#id65)"><g clip-path="url(#id66)"><g clip-path="url(#id67)"><path fill="rgb(6.269836%, 5.879211%, 5.099487%)" d="M 156.957031 113.296875 C 156.144531 112.519531 155.332031 111.742188 154.523438 110.964844 C 153.359375 109.851562 151.570312 111.605469 152.734375 112.71875 C 153.546875 113.496094 154.355469 114.273438 155.167969 115.050781 C 156.332031 116.167969 158.121094 114.414062 156.957031 113.296875 " fill-opacity="1" fill-rule="nonzero"/></g></g></g></g><g clip-path="url(#id68)"><g clip-path="url(#id69)"><g clip-path="url(#id70)"><g clip-path="url(#id71)"><path fill="rgb(6.269836%, 5.879211%, 5.099487%)" d="M 152.746094 128.664062 C 151.144531 128.980469 149.632812 129.519531 148.171875 130.253906 C 146.730469 130.980469 147.976562 133.152344 149.414062 132.429688 C 150.683594 131.789062 152 131.359375 153.394531 131.085938 C 154.972656 130.777344 154.320312 128.355469 152.746094 128.664062 " fill-opacity="1" fill-rule="nonzero"/></g></g></g></g><g fill="rgb(0%, 0%, 0%)" fill-opacity="1"><g transform="translate(79.710937, 266.331647)"><g><path d="M 28.734375 -6.601562 C 28.578125 -9.144531 28.300781 -11.75 28.054688 -14.257812 L 27.867188 -16.148438 C 27.527344 -19.28125 26.9375 -21.730469 25.976562 -23.898438 C 25.417969 -25.046875 24.582031 -25.820312 23.589844 -26.007812 C 22.597656 -26.222656 21.542969 -25.851562 20.582031 -24.984375 C 20.054688 -24.488281 19.589844 -23.898438 19.21875 -23.339844 C 18.503906 -22.132812 17.886719 -20.953125 17.390625 -19.808594 C 16.925781 -18.816406 16.523438 -17.761719 16.085938 -16.675781 C 15.902344 -16.179688 15.714844 -15.683594 15.5 -15.1875 L 15.25 -14.507812 L 14.910156 -15.15625 C 14.601562 -15.683594 14.351562 -16.179688 14.074219 -16.707031 C 13.484375 -17.855469 12.925781 -18.941406 12.273438 -19.960938 C 11.160156 -21.636719 10.261719 -22.78125 9.269531 -23.683594 C 8.679688 -24.210938 7.996094 -24.488281 7.347656 -24.488281 C 7.222656 -24.488281 7.066406 -24.457031 6.945312 -24.457031 C 6.136719 -24.300781 5.394531 -23.742188 4.929688 -22.875 C 4.371094 -21.851562 3.96875 -20.738281 3.75 -19.683594 C 2.851562 -14.941406 2.015625 -10.261719 1.269531 -5.703125 C 1.085938 -4.679688 1.085938 -3.503906 1.269531 -2.230469 C 1.425781 -0.960938 2.417969 -0.03125 3.65625 0 C 4.867188 0.0625 5.859375 -0.742188 6.230469 -2.015625 C 6.417969 -2.695312 6.476562 -3.441406 6.570312 -4.152344 C 6.789062 -6.355469 7.003906 -8.523438 7.253906 -10.695312 C 7.410156 -12.273438 7.5625 -13.824219 7.71875 -15.375 C 7.75 -15.808594 7.84375 -16.242188 7.90625 -16.644531 L 8.058594 -17.855469 L 8.523438 -17.453125 C 8.925781 -17.109375 9.113281 -16.769531 9.238281 -16.460938 C 9.515625 -15.839844 9.796875 -15.1875 10.074219 -14.539062 C 10.601562 -13.296875 11.128906 -11.996094 11.71875 -10.726562 C 12.242188 -9.609375 12.769531 -8.429688 13.484375 -7.4375 C 14.105469 -6.570312 14.972656 -6.105469 15.902344 -6.136719 C 16.832031 -6.199219 17.699219 -6.757812 18.257812 -7.71875 C 18.691406 -8.429688 18.96875 -9.269531 19.28125 -10.074219 L 19.3125 -10.167969 C 19.808594 -11.5625 20.304688 -12.957031 20.800781 -14.382812 C 21.078125 -15.1875 21.355469 -15.996094 21.636719 -16.800781 C 21.730469 -17.019531 21.820312 -17.234375 21.914062 -17.421875 L 22.316406 -18.351562 L 22.628906 -17.667969 C 22.84375 -17.234375 22.875 -16.832031 22.875 -16.460938 C 22.875 -15.777344 22.875 -15.097656 22.875 -14.445312 C 22.84375 -13.019531 22.8125 -11.5625 22.90625 -10.136719 C 23.09375 -7.410156 23.371094 -5.175781 23.773438 -3.101562 C 24.054688 -1.765625 25.171875 -1.179688 26.132812 -1.207031 C 27.246094 -1.238281 28.144531 -2.015625 28.425781 -3.222656 C 28.703125 -4.371094 28.828125 -5.546875 28.734375 -6.601562 Z M 28.734375 -6.601562 "/></g></g></g><g fill="rgb(0%, 0%, 0%)" fill-opacity="1"><g transform="translate(109.684201, 266.331647)"><g><path d="M 13.175781 -23.09375 C 13.019531 -23.125 12.863281 -23.125 12.679688 -23.125 C 12.367188 -23.125 12.027344 -23.09375 11.6875 -23.03125 L 11.375 -23 C 6.570312 -22.378906 3.410156 -19.683594 1.703125 -14.753906 C 0.683594 -11.808594 1.023438 -8.121094 2.574219 -5.394531 C 3.96875 -2.976562 6.261719 -1.363281 9.175781 -0.773438 L 9.269531 -0.742188 C 9.734375 -0.652344 10.199219 -0.558594 10.664062 -0.496094 C 13.886719 -0.125 16.429688 -1.054688 18.414062 -3.410156 L 19.03125 -4.089844 C 19.527344 -4.679688 20.054688 -5.300781 20.550781 -5.890625 C 21.945312 -7.5625 22.722656 -9.640625 22.96875 -12.460938 C 22.566406 -19.464844 18.753906 -21.761719 13.175781 -23.09375 Z M 17.328125 -11.964844 C 17.203125 -11.6875 17.078125 -11.40625 16.957031 -11.097656 C 16.644531 -10.414062 16.335938 -9.734375 15.933594 -9.050781 C 15.652344 -8.585938 15.28125 -8.214844 14.941406 -7.84375 C 14.785156 -7.6875 14.628906 -7.53125 14.507812 -7.378906 C 13.640625 -6.449219 12.460938 -5.921875 11.191406 -5.921875 C 10.878906 -5.921875 10.601562 -5.953125 10.292969 -6.011719 C 8.648438 -6.324219 7.316406 -7.46875 6.726562 -9.050781 C 5.859375 -11.46875 6.261719 -13.761719 7.964844 -16.304688 C 9.050781 -17.949219 10.261719 -18.226562 12.058594 -17.296875 C 12.738281 -16.957031 13.453125 -16.613281 14.351562 -16.273438 C 16.304688 -15.46875 17.109375 -14.382812 17.359375 -12.152344 L 17.359375 -12.058594 Z M 17.328125 -11.964844 "/></g></g></g><g fill="rgb(0%, 0%, 0%)" fill-opacity="1"><g transform="translate(133.830191, 266.331647)"><g><path d="M 23.21875 -22.164062 C 22.96875 -23.339844 22.132812 -24.179688 21.046875 -24.300781 C 19.871094 -24.457031 18.816406 -23.804688 18.382812 -22.722656 C 18.039062 -21.851562 17.824219 -20.921875 17.792969 -20.054688 C 17.667969 -17.667969 17.605469 -15.25 17.542969 -12.894531 C 17.511719 -11.933594 17.484375 -10.972656 17.453125 -10.011719 C 17.453125 -9.765625 17.421875 -9.515625 17.421875 -9.269531 L 17.390625 -8.710938 L 16.582031 -8.398438 L 15.066406 -10.382812 C 14.042969 -11.6875 13.050781 -12.957031 12.058594 -14.257812 C 11.5 -15.003906 10.941406 -15.777344 10.351562 -16.523438 C 9.359375 -17.855469 8.339844 -19.21875 7.285156 -20.519531 C 6.851562 -21.109375 6.261719 -21.605469 5.609375 -21.976562 C 5.175781 -22.226562 4.679688 -22.378906 4.214844 -22.378906 C 3.9375 -22.378906 3.65625 -22.316406 3.378906 -22.226562 C 2.636719 -21.976562 2.046875 -21.386719 1.703125 -20.582031 C 1.519531 -20.085938 1.394531 -19.621094 1.363281 -19.1875 C 0.929688 -14.195312 1.085938 -8.867188 1.859375 -2.417969 C 1.921875 -1.953125 2.109375 -1.425781 2.417969 -0.929688 C 2.757812 -0.371094 3.285156 -0.0625 3.78125 -0.09375 C 4.308594 -0.125 4.773438 -0.496094 5.082031 -1.085938 C 5.300781 -1.550781 5.457031 -2.078125 5.457031 -2.511719 C 5.578125 -5.113281 5.671875 -7.75 5.765625 -10.292969 L 5.828125 -12.335938 C 5.859375 -12.554688 5.828125 -12.800781 5.828125 -13.019531 L 5.828125 -14.042969 L 6.386719 -13.640625 C 6.820312 -13.296875 7.097656 -12.925781 7.316406 -12.585938 L 7.46875 -12.398438 C 7.90625 -11.777344 8.339844 -11.128906 8.804688 -10.507812 C 9.855469 -8.988281 10.972656 -7.410156 12.183594 -6.011719 C 13.203125 -4.804688 14.785156 -3.101562 16.644531 -2.046875 C 18.445312 -1.023438 19.992188 -0.804688 21.140625 -1.425781 C 22.289062 -2.078125 22.9375 -3.566406 23.03125 -5.671875 C 23.1875 -9.671875 23.25 -13.730469 23.339844 -17.667969 L 23.371094 -20.210938 C 23.402344 -20.890625 23.339844 -21.542969 23.21875 -22.164062 Z M 23.21875 -22.164062 "/></g></g></g><g fill="rgb(0%, 0%, 0%)" fill-opacity="1"><g transform="translate(158.41013, 266.331647)"><g><path d="M 18.691406 -5.425781 C 16.832031 -6.945312 14.972656 -8.429688 13.082031 -9.949219 C 12.214844 -10.632812 11.34375 -11.3125 10.476562 -12.027344 C 10.351562 -12.121094 10.261719 -12.214844 10.105469 -12.335938 L 9.578125 -12.800781 L 10.507812 -13.609375 C 10.972656 -13.980469 11.375 -14.320312 11.808594 -14.660156 C 12.492188 -15.1875 13.144531 -15.714844 13.792969 -16.242188 C 15.066406 -17.234375 16.398438 -18.257812 17.667969 -19.34375 C 18.785156 -20.273438 19.03125 -21.636719 18.257812 -22.597656 C 17.511719 -23.558594 16.210938 -23.621094 14.910156 -22.753906 L 14.847656 -22.722656 C 14.785156 -22.660156 14.691406 -22.628906 14.628906 -22.566406 L 6.664062 -15.34375 C 6.570312 -15.28125 6.476562 -15.21875 6.355469 -15.125 L 5.703125 -14.660156 L 5.640625 -15.21875 C 5.578125 -15.53125 5.546875 -15.808594 5.546875 -16.085938 C 5.488281 -16.644531 5.425781 -17.171875 5.363281 -17.667969 L 5.238281 -18.445312 C 5.082031 -19.433594 4.960938 -20.488281 4.710938 -21.480469 C 4.527344 -22.257812 3.96875 -22.722656 3.191406 -22.722656 C 2.417969 -22.753906 1.859375 -22.316406 1.582031 -21.449219 C 1.394531 -20.832031 1.269531 -20.304688 1.269531 -19.839844 L 1.269531 -19.527344 C 1.207031 -14.722656 1.117188 -9.765625 1.148438 -4.898438 C 1.148438 -4.03125 1.332031 -3.070312 1.734375 -2.015625 C 2.078125 -1.117188 3.007812 -0.558594 4 -0.683594 C 5.023438 -0.804688 5.765625 -1.550781 5.953125 -2.605469 C 6.042969 -3.128906 6.042969 -3.6875 6.042969 -4.214844 L 6.042969 -4.402344 C 6.074219 -5.578125 6.074219 -6.757812 6.074219 -7.90625 L 6.074219 -9.453125 L 6.789062 -9.949219 L 6.972656 -9.640625 C 7.003906 -9.546875 7.066406 -9.484375 7.097656 -9.390625 C 7.160156 -9.269531 7.253906 -9.113281 7.347656 -9.019531 C 8.371094 -7.8125 9.390625 -6.601562 10.445312 -5.394531 L 11.40625 -4.246094 C 12.832031 -2.574219 14.257812 -1.488281 15.871094 -0.835938 C 17.453125 -0.1875 18.878906 -0.527344 19.621094 -1.734375 C 20.304688 -2.945312 19.960938 -4.371094 18.691406 -5.425781 Z M 18.691406 -5.425781 "/></g></g></g><g fill="rgb(0%, 0%, 0%)" fill-opacity="1"><g transform="translate(179.549495, 266.331647)"><g><path d="M 13.761719 -5.609375 C 13.328125 -5.578125 12.894531 -5.488281 12.460938 -5.363281 C 12.121094 -5.238281 11.75 -5.144531 11.40625 -5.082031 C 9.980469 -4.867188 8.710938 -4.710938 7.53125 -4.648438 C 7.253906 -4.617188 6.972656 -4.835938 6.851562 -4.960938 C 6.726562 -5.082031 6.476562 -5.300781 6.476562 -5.578125 C 6.417969 -6.449219 6.417969 -7.347656 6.417969 -8.214844 C 6.417969 -8.523438 6.417969 -8.835938 6.417969 -9.113281 L 6.417969 -9.453125 L 6.757812 -9.453125 C 7.347656 -9.484375 7.933594 -9.515625 8.523438 -9.546875 C 9.949219 -9.609375 11.3125 -9.671875 12.679688 -9.796875 C 13.328125 -9.855469 14.074219 -10.074219 14.785156 -10.414062 C 15.375 -10.695312 16.027344 -11.28125 15.964844 -12.304688 C 15.871094 -13.175781 15.34375 -13.792969 14.507812 -13.980469 C 13.546875 -14.195312 12.429688 -14.257812 11.28125 -14.164062 C 10.382812 -14.074219 9.453125 -13.886719 8.492188 -13.699219 C 8.058594 -13.609375 7.625 -13.515625 7.160156 -13.453125 L 6.757812 -13.390625 L 6.757812 -14.910156 C 6.757812 -15.714844 6.757812 -16.492188 6.789062 -17.265625 C 6.789062 -18.070312 6.789062 -18.472656 7.066406 -18.753906 C 7.347656 -19 7.75 -19 8.523438 -18.96875 L 9.332031 -18.910156 C 10.601562 -18.847656 11.902344 -18.785156 13.175781 -18.847656 C 15.1875 -18.96875 16.523438 -20.117188 16.460938 -21.667969 C 16.460938 -22.347656 16.148438 -23 15.621094 -23.464844 C 15.035156 -23.992188 14.226562 -24.300781 13.296875 -24.300781 C 13.203125 -24.300781 13.113281 -24.300781 13.050781 -24.300781 C 11.097656 -24.179688 9.113281 -23.898438 7.222656 -23.621094 L 5.859375 -23.433594 C 5.394531 -23.371094 4.867188 -23.125 4.464844 -22.90625 C 3.191406 -22.195312 2.726562 -21.355469 2.976562 -20.179688 C 3.007812 -19.929688 2.976562 -19.652344 2.914062 -19.40625 L 2.914062 -19.25 C 2.757812 -18.382812 2.574219 -17.484375 2.417969 -16.582031 C 2.109375 -14.722656 1.734375 -12.800781 1.488281 -10.878906 C 1.148438 -8.617188 0.867188 -5.984375 1.582031 -3.410156 C 2.140625 -1.394531 3.347656 -0.1875 5.175781 0.1875 C 8.308594 0.835938 11.222656 0.496094 13.855469 -0.804688 C 14.445312 -1.085938 15.003906 -1.519531 15.46875 -2.015625 C 16.179688 -2.789062 16.367188 -3.625 15.964844 -4.464844 C 15.46875 -5.515625 14.476562 -5.671875 13.761719 -5.609375 Z M 13.761719 -5.609375 "/></g></g></g><g fill="rgb(0%, 0%, 0%)" fill-opacity="1"><g transform="translate(197.186305, 266.331647)"><g><path d="M 19 -23.21875 C 18.039062 -23.898438 16.769531 -23.683594 15.808594 -22.660156 C 15.5 -22.316406 15.21875 -21.914062 14.941406 -21.511719 C 14.753906 -21.265625 14.601562 -21.046875 14.414062 -20.832031 C 13.578125 -19.714844 12.707031 -18.597656 11.808594 -17.421875 L 10.320312 -15.5 L 10.042969 -15.933594 C 9.734375 -16.492188 9.421875 -17.019531 9.113281 -17.511719 C 8.429688 -18.628906 7.8125 -19.683594 7.160156 -20.675781 L 7.066406 -20.800781 C 6.292969 -21.976562 5.515625 -23.21875 4.585938 -24.269531 C 4.121094 -24.796875 3.535156 -25.015625 3.007812 -25.015625 C 2.636719 -25.015625 2.292969 -24.890625 2.015625 -24.734375 C 1.269531 -24.269531 0.992188 -23.402344 1.207031 -22.257812 C 1.269531 -22.039062 1.300781 -21.792969 1.394531 -21.605469 C 1.644531 -21.015625 1.859375 -20.425781 2.078125 -19.839844 C 2.605469 -18.414062 3.160156 -16.988281 3.8125 -15.621094 C 4.898438 -13.359375 6.417969 -11.59375 8.277344 -10.382812 C 8.648438 -10.136719 8.867188 -9.515625 8.835938 -9.082031 C 8.804688 -8.277344 8.710938 -7.5 8.648438 -6.695312 C 8.554688 -5.515625 8.429688 -4.277344 8.429688 -3.039062 C 8.429688 -1.984375 8.773438 -1.085938 9.390625 -0.464844 C 9.855469 0 10.445312 0.21875 11.066406 0.21875 C 12.585938 0.1875 13.578125 -1.148438 13.515625 -3.070312 C 13.484375 -5.175781 13.328125 -7.378906 13.050781 -9.828125 C 12.957031 -10.757812 13.113281 -11.375 13.699219 -12.152344 C 15.46875 -14.476562 17.542969 -17.234375 19.464844 -20.148438 C 20.304688 -21.417969 19.808594 -22.628906 19 -23.21875 Z M 19 -23.21875 "/></g></g></g><g fill="rgb(0%, 0%, 0%)" fill-opacity="1"><g transform="translate(218.263677, 266.331647)"><g><path d="M 18.691406 -5.425781 C 16.832031 -6.945312 14.972656 -8.429688 13.082031 -9.949219 C 12.214844 -10.632812 11.34375 -11.3125 10.476562 -12.027344 C 10.351562 -12.121094 10.261719 -12.214844 10.105469 -12.335938 L 9.578125 -12.800781 L 10.507812 -13.609375 C 10.972656 -13.980469 11.375 -14.320312 11.808594 -14.660156 C 12.492188 -15.1875 13.144531 -15.714844 13.792969 -16.242188 C 15.066406 -17.234375 16.398438 -18.257812 17.667969 -19.34375 C 18.785156 -20.273438 19.03125 -21.636719 18.257812 -22.597656 C 17.511719 -23.558594 16.210938 -23.621094 14.910156 -22.753906 L 14.847656 -22.722656 C 14.785156 -22.660156 14.691406 -22.628906 14.628906 -22.566406 L 6.664062 -15.34375 C 6.570312 -15.28125 6.476562 -15.21875 6.355469 -15.125 L 5.703125 -14.660156 L 5.640625 -15.21875 C 5.578125 -15.53125 5.546875 -15.808594 5.546875 -16.085938 C 5.488281 -16.644531 5.425781 -17.171875 5.363281 -17.667969 L 5.238281 -18.445312 C 5.082031 -19.433594 4.960938 -20.488281 4.710938 -21.480469 C 4.527344 -22.257812 3.96875 -22.722656 3.191406 -22.722656 C 2.417969 -22.753906 1.859375 -22.316406 1.582031 -21.449219 C 1.394531 -20.832031 1.269531 -20.304688 1.269531 -19.839844 L 1.269531 -19.527344 C 1.207031 -14.722656 1.117188 -9.765625 1.148438 -4.898438 C 1.148438 -4.03125 1.332031 -3.070312 1.734375 -2.015625 C 2.078125 -1.117188 3.007812 -0.558594 4 -0.683594 C 5.023438 -0.804688 5.765625 -1.550781 5.953125 -2.605469 C 6.042969 -3.128906 6.042969 -3.6875 6.042969 -4.214844 L 6.042969 -4.402344 C 6.074219 -5.578125 6.074219 -6.757812 6.074219 -7.90625 L 6.074219 -9.453125 L 6.789062 -9.949219 L 6.972656 -9.640625 C 7.003906 -9.546875 7.066406 -9.484375 7.097656 -9.390625 C 7.160156 -9.269531 7.253906 -9.113281 7.347656 -9.019531 C 8.371094 -7.8125 9.390625 -6.601562 10.445312 -5.394531 L 11.40625 -4.246094 C 12.832031 -2.574219 14.257812 -1.488281 15.871094 -0.835938 C 17.453125 -0.1875 18.878906 -0.527344 19.621094 -1.734375 C 20.304688 -2.945312 19.960938 -4.371094 18.691406 -5.425781 Z M 18.691406 -5.425781 "/></g></g></g><g fill="rgb(0%, 0%, 0%)" fill-opacity="1"><g transform="translate(239.403042, 266.331647)"><g><path d="M 7.347656 -18.382812 C 7.285156 -19.496094 7.097656 -20.457031 6.820312 -21.296875 C 6.476562 -22.410156 5.671875 -23.0625 4.496094 -23.09375 C 3.378906 -23.15625 2.386719 -22.472656 2.015625 -21.355469 C 1.734375 -20.519531 1.550781 -19.589844 1.457031 -18.628906 C 1.332031 -17.078125 1.269531 -15.53125 1.207031 -13.980469 C 1.179688 -13.484375 1.148438 -12.957031 1.148438 -12.460938 L 1.269531 -12.460938 L 1.269531 -12.121094 C 1.269531 -11.4375 1.269531 -10.757812 1.238281 -10.074219 C 1.238281 -8.492188 1.207031 -6.820312 1.300781 -5.207031 C 1.363281 -4.03125 1.703125 -2.851562 2.199219 -1.921875 C 2.605469 -1.207031 3.285156 -0.773438 4 -0.773438 C 4.03125 -0.773438 4.03125 -0.773438 4.03125 -0.773438 C 4.804688 -0.773438 5.546875 -1.238281 5.984375 -2.046875 C 6.261719 -2.542969 6.449219 -3.007812 6.476562 -3.441406 L 6.695312 -5.269531 C 7.160156 -9.546875 7.65625 -13.980469 7.347656 -18.382812 Z M 7.347656 -18.382812 "/></g></g></g><g fill="rgb(0%, 0%, 0%)" fill-opacity="1"><g transform="translate(248.050964, 266.331647)"><g><path d="M 23.21875 -22.164062 C 22.96875 -23.339844 22.132812 -24.179688 21.046875 -24.300781 C 19.871094 -24.457031 18.816406 -23.804688 18.382812 -22.722656 C 18.039062 -21.851562 17.824219 -20.921875 17.792969 -20.054688 C 17.667969 -17.667969 17.605469 -15.25 17.542969 -12.894531 C 17.511719 -11.933594 17.484375 -10.972656 17.453125 -10.011719 C 17.453125 -9.765625 17.421875 -9.515625 17.421875 -9.269531 L 17.390625 -8.710938 L 16.582031 -8.398438 L 15.066406 -10.382812 C 14.042969 -11.6875 13.050781 -12.957031 12.058594 -14.257812 C 11.5 -15.003906 10.941406 -15.777344 10.351562 -16.523438 C 9.359375 -17.855469 8.339844 -19.21875 7.285156 -20.519531 C 6.851562 -21.109375 6.261719 -21.605469 5.609375 -21.976562 C 5.175781 -22.226562 4.679688 -22.378906 4.214844 -22.378906 C 3.9375 -22.378906 3.65625 -22.316406 3.378906 -22.226562 C 2.636719 -21.976562 2.046875 -21.386719 1.703125 -20.582031 C 1.519531 -20.085938 1.394531 -19.621094 1.363281 -19.1875 C 0.929688 -14.195312 1.085938 -8.867188 1.859375 -2.417969 C 1.921875 -1.953125 2.109375 -1.425781 2.417969 -0.929688 C 2.757812 -0.371094 3.285156 -0.0625 3.78125 -0.09375 C 4.308594 -0.125 4.773438 -0.496094 5.082031 -1.085938 C 5.300781 -1.550781 5.457031 -2.078125 5.457031 -2.511719 C 5.578125 -5.113281 5.671875 -7.75 5.765625 -10.292969 L 5.828125 -12.335938 C 5.859375 -12.554688 5.828125 -12.800781 5.828125 -13.019531 L 5.828125 -14.042969 L 6.386719 -13.640625 C 6.820312 -13.296875 7.097656 -12.925781 7.316406 -12.585938 L 7.46875 -12.398438 C 7.90625 -11.777344 8.339844 -11.128906 8.804688 -10.507812 C 9.855469 -8.988281 10.972656 -7.410156 12.183594 -6.011719 C 13.203125 -4.804688 14.785156 -3.101562 16.644531 -2.046875 C 18.445312 -1.023438 19.992188 -0.804688 21.140625 -1.425781 C 22.289062 -2.078125 22.9375 -3.566406 23.03125 -5.671875 C 23.1875 -9.671875 23.25 -13.730469 23.339844 -17.667969 L 23.371094 -20.210938 C 23.402344 -20.890625 23.339844 -21.542969 23.21875 -22.164062 Z M 23.21875 -22.164062 "/></g></g></g><g fill="rgb(0%, 0%, 0%)" fill-opacity="1"><g transform="translate(272.630892, 266.331647)"><g><path d="M 21.296875 -7.4375 C 21.140625 -8.492188 20.984375 -9.609375 20.738281 -10.726562 C 20.613281 -11.34375 20.242188 -12.492188 19.1875 -12.800781 C 17.203125 -13.390625 15.1875 -13.144531 13.359375 -12.058594 C 12.957031 -11.808594 12.769531 -11.46875 12.769531 -11.035156 C 12.800781 -10.539062 13.144531 -10.074219 13.667969 -9.855469 C 13.917969 -9.734375 14.226562 -9.703125 14.539062 -9.640625 L 14.785156 -9.578125 C 14.972656 -9.546875 15.21875 -9.546875 15.4375 -9.515625 C 16.027344 -9.484375 16.613281 -9.421875 16.925781 -9.050781 C 17.234375 -8.617188 17.171875 -7.996094 17.140625 -7.410156 C 17.109375 -7.191406 17.109375 -6.972656 17.109375 -6.757812 L 17.109375 -6.695312 C 17.203125 -5.703125 16.550781 -5.394531 16.085938 -5.207031 C 13.546875 -4.339844 11.097656 -4.617188 9.019531 -6.074219 C 6.914062 -7.53125 5.921875 -9.546875 6.199219 -11.902344 C 6.476562 -14.195312 7.5 -16.058594 9.269531 -17.453125 C 12.398438 -19.929688 15.589844 -20.550781 18.96875 -19.3125 C 19.28125 -19.1875 19.589844 -19.1875 19.808594 -19.34375 C 19.992188 -19.464844 20.085938 -19.652344 20.117188 -19.929688 C 20.148438 -20.425781 20.023438 -21.046875 19.777344 -21.417969 C 19.03125 -22.660156 17.761719 -23.125 16.613281 -23.433594 C 13.917969 -24.179688 10.351562 -23.464844 7.316406 -21.542969 C 4.0625 -19.464844 1.890625 -16.367188 1.238281 -12.738281 C 0.804688 -10.230469 1.675781 -7.003906 3.441406 -4.464844 C 4.554688 -2.882812 6.507812 -0.898438 9.546875 -0.402344 C 12.058594 0.03125 13.980469 -0.0625 15.777344 -0.683594 C 15.996094 -0.742188 16.242188 -0.804688 16.492188 -0.804688 C 16.707031 -0.804688 16.894531 -0.742188 17.078125 -0.652344 C 18.007812 -0.125 18.847656 0.03125 19.496094 -0.246094 C 20.117188 -0.496094 20.582031 -1.179688 20.859375 -2.167969 C 21.078125 -3.007812 21.171875 -3.90625 21.296875 -4.835938 C 21.355469 -5.269531 21.417969 -5.703125 21.480469 -6.136719 C 21.417969 -6.570312 21.355469 -7.003906 21.296875 -7.4375 Z M 21.296875 -7.4375 "/></g></g></g></svg>